<?xml version="1.0" standalone="no"?>
<svg viewBox="0 0 200 200" xmlns="http://www.w3.org/2000/svg">
  <path fill="#3882F6" d="M35.5,-64.7C46.2,-55.3,55.2,-46.2,60.8,-35.4C66.4,-24.7,68.7,-12.3,69.1,0.2C69.6,12.8,68.1,25.7,63.6,38.4C59.2,51.2,51.7,63.8,40.6,69.5C29.4,75.2,14.7,74,2,70.5C-10.6,66.9,-21.3,61.1,-35.5,57.2C-49.8,53.3,-67.6,51.3,-78.5,42.1C-89.4,32.9,-93.2,16.5,-90.4,1.6C-87.6,-13.2,-78.2,-26.5,-67.7,-36.3C-57.2,-46.1,-45.6,-52.5,-34.1,-61.5C-22.7,-70.4,-11.3,-81.9,0.5,-82.8C12.4,-83.7,24.8,-74.1,35.5,-64.7Z" transform="translate(100 100)" />
</svg>
